<?xml version="1.0" encoding="UTF-8"?>
<svg width="378px" height="348px" viewBox="0 0 378 348" version="1.1" xmlns="http://www.w3.org/2000/svg" xmlns:xlink="http://www.w3.org/1999/xlink">
    <!-- Generator: Sketch 54.1 (76490) - https://sketchapp.com -->
    <title>Group 110</title>
    <desc>Created with Sketch.</desc>
    <g id="-----Product-Pages***" stroke="none" stroke-width="1" fill="none" fill-rule="evenodd">
        <g id="Group-110">
            <polygon id="Fill-4" fill="#996E47" points="246.761248 145.023621 263.60283 145.023621 263.60283 125.903844 246.761248 125.903844"></polygon>
            <polygon id="Fill-5" fill="#A0A0A0" points="128.574552 184.882474 151.288847 184.882474 151.288847 173.151755 128.574552 173.151755"></polygon>
            <polygon id="Fill-6" fill="#878787" points="123.150418 184.882474 128.527487 184.882474 128.527487 173.151755 123.150418 173.151755"></polygon>
            <polygon id="Fill-7" fill="#C4C4C4" points="120.811922 190.030106 160.175131 190.030106 160.175131 184.733928 120.811922 184.733928"></polygon>
            <polygon id="Fill-8" fill="#A0A0A0" points="109.781281 190.030106 120.804568 190.030106 120.804568 184.733928 109.781281 184.733928"></polygon>
            <g id="Group-109" transform="translate(0.000000, 0.419164)">
                <path d="M189.418536,172.817306 L91.0384579,172.817306 C87.8028033,172.817306 85.1554496,170.168481 85.1554496,166.934297 L85.1554496,97.5398017 C85.1554496,94.3041471 87.8028033,91.6567933 91.0384579,91.6567933 L189.418536,91.6567933 C192.654191,91.6567933 195.301544,94.3041471 195.301544,97.5398017 L195.301544,166.934297 C195.301544,170.168481 192.654191,172.817306 189.418536,172.817306" id="Fill-9" fill="#282828"></path>
                <path d="M189.860938,172.817306 L96.4328825,172.817306 C93.1957571,172.817306 90.5498741,170.168481 90.5498741,166.934297 L90.5498741,97.5398017 C90.5498741,94.3041471 93.1957571,91.6567933 96.4328825,91.6567933 L189.860938,91.6567933 C193.096593,91.6567933 195.743947,94.3041471 195.743947,97.5398017 L195.743947,166.934297 C195.743947,170.169952 193.096593,172.817306 189.860938,172.817306" id="Fill-11" fill="#494949"></path>
                <path d="M195.743947,162.62117 L195.743947,167.13785 C195.743947,170.261727 193.096593,172.817894 189.860938,172.817894 L96.4328825,172.817894 C93.1957571,172.817894 90.5498741,170.261727 90.5498741,167.13785 L90.5498741,162.62117 L195.743947,162.62117 Z" id="Fill-13" fill="#CECECE"></path>
                <polygon id="Fill-15" fill="#FFFFFF" points="95.9415042 157.00878 189.244546 157.00878 189.244546 97.0506295 95.9415042 97.0506295"></polygon>
                <polygon id="Fill-17" fill="#58A5B7" points="98.7079889 154.343777 186.261861 154.343777 186.261861 149.131432 98.7079889 149.131432"></polygon>
                <polygon id="Fill-18" fill="#58A5B7" points="98.7079889 108.996078 186.261861 108.996078 186.261861 103.783733 98.7079889 103.783733"></polygon>
                <polygon id="Fill-19" fill="#9CCEDF" points="98.7079889 111.753738 186.261861 111.753738 186.261861 108.962251 98.7079889 108.962251"></polygon>
                <polygon id="Fill-20" fill="#9CCEDF" points="98.7065181 116.089515 113.364033 116.089515 113.364033 113.833382 98.7065181 113.833382"></polygon>
                <polygon id="Fill-21" fill="#DDDDDD" points="102.592245 146.700279 141.474518 146.700279 141.474518 144.844189 102.592245 144.844189"></polygon>
                <polygon id="Fill-22" fill="#DDDDDD" points="102.592245 142.930741 141.474518 142.930741 141.474518 141.074652 102.592245 141.074652"></polygon>
                <polygon id="Fill-23" fill="#DDDDDD" points="102.592245 139.162674 141.474518 139.162674 141.474518 137.306585 102.592245 137.306585"></polygon>
                <polygon id="Fill-24" fill="#DDDDDD" points="102.592245 135.393136 141.474518 135.393136 141.474518 133.537047 102.592245 133.537047"></polygon>
                <path d="M100.637616,134.503037 C100.637616,135.03545 100.205214,135.467851 99.6728022,135.467851 C99.1389192,135.467851 98.7079889,135.03545 98.7079889,134.503037 C98.7079889,133.970625 99.1389192,133.538224 99.6728022,133.538224 C100.205214,133.538224 100.637616,133.970625 100.637616,134.503037" id="Fill-25" fill="#DDDDDD"></path>
                <path d="M100.637616,138.197272 C100.637616,138.729685 100.205214,139.162086 99.6728022,139.162086 C99.1389192,139.162086 98.7079889,138.729685 98.7079889,138.197272 C98.7079889,137.66486 99.1389192,137.232459 99.6728022,137.232459 C100.205214,137.232459 100.637616,137.66486 100.637616,138.197272" id="Fill-26" fill="#DDDDDD"></path>
                <path d="M100.637616,141.966075 C100.637616,142.498487 100.205214,142.930888 99.6728022,142.930888 C99.1389192,142.930888 98.7079889,142.498487 98.7079889,141.966075 C98.7079889,141.433662 99.1389192,141.001261 99.6728022,141.001261 C100.205214,141.001261 100.637616,141.433662 100.637616,141.966075" id="Fill-27" fill="#DDDDDD"></path>
                <path d="M100.637616,145.734877 C100.637616,146.267289 100.205214,146.69969 99.6728022,146.69969 C99.1389192,146.69969 98.7079889,146.267289 98.7079889,145.734877 C98.7079889,145.202465 99.1389192,144.770064 99.6728022,144.770064 C100.205214,144.770064 100.637616,145.202465 100.637616,145.734877" id="Fill-28" fill="#DDDDDD"></path>
                <polygon id="Fill-29" fill="#DDDDDD" points="98.7065181 120.685616 173.722228 120.685616 173.722228 118.829526 98.7065181 118.829526"></polygon>
                <polygon id="Fill-30" fill="#DDDDDD" points="98.7065181 124.300724 173.722228 124.300724 173.722228 122.446106 98.7065181 122.446106"></polygon>
                <polygon id="Fill-31" fill="#DDDDDD" points="98.7065181 127.917304 141.389214 127.917304 141.389214 126.061214 98.7065181 126.061214"></polygon>
                <polygon id="Fill-32" fill="#E5E5E5" points="95.9415042 101.104022 189.219543 101.104022 189.219543 97.0506295 95.9415042 97.0506295"></polygon>
                <polygon id="Fill-33" fill="#FFFFFF" points="111.982997 100.150975 186.625136 100.150975 186.625136 98.0022061 111.982997 98.0022061"></polygon>
                <path d="M101.334311,99.1446864 C101.334311,99.8535889 100.757776,100.431594 100.047403,100.431594 C99.3370295,100.431594 98.7604947,99.8535889 98.7604947,99.1446864 C98.7604947,98.4343131 99.3370295,97.8577783 100.047403,97.8577783 C100.757776,97.8577783 101.334311,98.4343131 101.334311,99.1446864" id="Fill-34" fill="#EE1C00"></path>
                <path d="M104.972363,99.1446864 C104.972363,99.8535889 104.395828,100.431594 103.685455,100.431594 C102.975082,100.431594 102.398547,99.8535889 102.398547,99.1446864 C102.398547,98.4343131 102.975082,97.8577783 103.685455,97.8577783 C104.395828,97.8577783 104.972363,98.4343131 104.972363,99.1446864" id="Fill-35" fill="#FFC107"></path>
                <path d="M108.610416,99.1446864 C108.610416,99.8535889 108.033881,100.431594 107.323508,100.431594 C106.613134,100.431594 106.036599,99.8535889 106.036599,99.1446864 C106.036599,98.4343131 106.613134,97.8577783 107.323508,97.8577783 C108.033881,97.8577783 108.610416,98.4343131 108.610416,99.1446864" id="Fill-36" fill="#2FA734"></path>
                <polygon id="Fill-37" fill="#9CCEDF" points="171.602875 116.089515 186.261861 116.089515 186.261861 113.833382 171.602875 113.833382"></polygon>
                <polygon id="Fill-38" fill="#E0E2E9" points="132.14995 189.64624 175.301816 189.64624 175.301816 186.000245 132.14995 186.000245"></polygon>
                <polygon id="Fill-39" fill="#282828" points="144.595454 186.382641 148.378228 186.382641 148.378228 185.294284 144.595454 185.294284"></polygon>
                <polygon id="Fill-40" fill="#282828" points="149.191554 186.382641 152.974329 186.382641 152.974329 185.294284 149.191554 185.294284"></polygon>
                <polygon id="Fill-41" fill="#282828" points="153.787655 186.382641 157.570429 186.382641 157.570429 185.294284 153.787655 185.294284"></polygon>
                <polygon id="Fill-42" fill="#282828" points="150.201961 186.842986 153.984735 186.842986 153.984735 185.75463 150.201961 185.75463"></polygon>
                <polygon id="Fill-43" fill="#282828" points="154.798061 186.842986 158.580836 186.842986 158.580836 185.75463 154.798061 185.75463"></polygon>
                <polygon id="Fill-44" fill="#282828" points="155.809939 187.485705 159.592713 187.485705 159.592713 186.397348 155.809939 186.397348"></polygon>
                <polygon id="Fill-45" fill="#282828" points="160.406039 187.485705 164.188813 187.485705 164.188813 186.397348 160.406039 186.397348"></polygon>
                <polygon id="Fill-46" fill="#A0A0A0" points="132.098032 189.64624 153.607782 189.64624 153.607782 187.991643 132.098032 185.960535"></polygon>
                <polygon id="Fill-47" fill="#C4C4C4" points="153.608223 189.64624 175.301816 189.64624 175.301816 188.050474 153.608223 188.050474"></polygon>
                <path d="M373.668916,347.568245 L4.5101415,347.568245 C2.217239,347.568245 0.342030084,345.693036 0.342030084,343.401604 C0.342030084,341.108702 2.217239,339.233493 4.5101415,339.233493 L373.668916,339.233493 C375.960348,339.233493 377.835557,341.108702 377.835557,343.401604 C377.835557,345.693036 375.960348,347.568245 373.668916,347.568245" id="Fill-48" fill="#D8D8D8"></path>
                <polygon id="Fill-49" fill="#A0A0A0" points="21.7700056 337.621549 33.2124568 337.621549 33.2124568 218.631822 21.7700056 218.631822"></polygon>
                <polygon id="Fill-50" fill="#282828" points="21.7700056 343.276591 33.2124568 343.276591 33.2124568 337.393582 21.7700056 337.393582"></polygon>
                <polygon id="Fill-51" fill="#CCCCCC" points="96.2886017 337.621549 107.729582 337.621549 107.729582 218.631822 96.2886017 218.631822"></polygon>
                <polygon id="Fill-52" fill="#333333" points="96.2886017 343.276591 107.729582 343.276591 107.729582 337.393582 96.2886017 337.393582"></polygon>
                <polygon id="Fill-53" fill="#CCCCCC" points="309.056423 337.621549 320.498875 337.621549 320.498875 218.631822 309.056423 218.631822"></polygon>
                <polygon id="Fill-54" fill="#333333" points="309.056423 343.276591 320.498875 343.276591 320.498875 337.393582 309.056423 337.393582"></polygon>
                <polygon id="Fill-55" fill="#A0A0A0" points="234.539298 337.621549 245.980279 337.621549 245.980279 218.631822 234.539298 218.631822"></polygon>
                <polygon id="Fill-56" fill="#282828" points="234.539298 343.276591 245.980279 343.276591 245.980279 337.393582 234.539298 337.393582"></polygon>
                <path d="M245.806877,343.295269 L204.236069,343.295269 C203.418331,343.295269 202.755022,342.63196 202.755022,341.812751 C202.755022,340.996484 203.418331,340.331704 204.236069,340.331704 L245.806877,340.331704 C246.626086,340.331704 247.289395,340.996484 247.289395,341.812751 C247.289395,342.63196 246.626086,343.295269 245.806877,343.295269" id="Fill-57" fill="#30221E"></path>
                <path d="M243.010536,331.030962 L238.876252,331.030962 C238.763004,331.030962 238.651227,331.057435 238.54092,331.100087 C238.396787,331.057435 238.237945,331.030962 238.052631,331.030962 L214.600018,331.030962 C208.936152,331.030962 204.304753,335.663831 204.304753,341.326226 L235.846503,341.326226 L238.93214,341.326226 L246.041756,341.326226 C246.041756,335.663831 244.676898,331.030962 243.010536,331.030962" id="Fill-58" fill="#46332D"></path>
                <polygon id="Fill-59" fill="#30221E" points="204.043253 343.29571 246.10088 343.29571 246.10088 341.385203 204.043253 341.385203"></polygon>
                <path d="M187.66334,189.799933 L161.728098,189.799933 C157.810014,189.799933 154.603775,186.593694 154.603775,182.67561 C154.603775,178.757526 157.810014,175.551287 161.728098,175.551287 L187.66334,175.551287 C191.581424,175.551287 194.787664,178.757526 194.787664,182.67561 C194.787664,186.593694 191.581424,189.799933 187.66334,189.799933" id="Fill-60" fill="#AC8457"></path>
                <path d="M274.798342,246.336232 L235.592504,246.336232 C230.739022,246.336232 226.767991,242.365201 226.767991,237.511719 L226.767991,146.075062 C226.767991,141.22158 230.739022,137.250549 235.592504,137.250549 L274.798342,137.250549 C279.653295,137.250549 283.622855,141.22158 283.622855,146.075062 L283.622855,237.511719 C283.622855,242.365201 279.653295,246.336232 274.798342,246.336232" id="Fill-61" fill="#34495C"></path>
                <path d="M271.878311,248.137315 L199.196684,248.137315 C192.73567,248.137315 187.451258,242.852903 187.451258,236.393359 C187.451258,229.932345 192.73567,224.646462 199.196684,224.646462 L271.878311,224.646462 C278.339325,224.646462 283.622266,229.932345 283.622266,236.393359 C283.622266,242.852903 278.339325,248.137315 271.878311,248.137315" id="Fill-62" fill="#2A414B"></path>
                <path d="M197.749023,189.799933 L173.213936,189.799933 C168.911987,189.799933 165.389535,186.277482 165.389535,181.975532 C165.389535,177.672111 168.911987,174.151131 173.213936,174.151131 L197.749023,174.151131 C202.052443,174.151131 205.571953,177.672111 205.571953,181.975532 C205.571953,186.277482 202.052443,189.799933 197.749023,189.799933" id="Fill-63" fill="#34495C"></path>
                <polygon id="Fill-64" fill="#2A414B" points="187.450228 330.991398 210.145404 330.991398 210.145404 235.908747 187.450228 235.908747"></polygon>
                <polygon id="Fill-65" fill="#34495C" points="203.001373 187.957228 192.210465 177.16632 229.783768 139.591545 240.574676 150.382453"></polygon>
                <polygon id="Fill-66" fill="#2A414B" points="221.767287 330.991398 244.463933 330.991398 244.463933 235.908747 221.767287 235.908747"></polygon>
                <path d="M208.753778,331.030962 L204.620965,331.030962 C204.506246,331.030962 204.394469,331.057435 204.284163,331.100087 C204.140029,331.057435 203.981188,331.030962 203.797344,331.030962 L180.34326,331.030962 C174.679394,331.030962 170.047996,335.663831 170.047996,341.326226 L201.591216,341.326226 L204.676853,341.326226 L211.784998,341.326226 C211.784998,335.663831 210.42014,331.030962 208.753778,331.030962" id="Fill-67" fill="#6C4637"></path>
                <path d="M211.550119,343.295269 L169.980782,343.295269 C169.163044,343.295269 168.499735,342.63196 168.499735,341.812751 C168.499735,340.996484 169.163044,340.331704 169.980782,340.331704 L211.550119,340.331704 C212.369328,340.331704 213.032637,340.996484 213.032637,341.812751 C213.032637,342.63196 212.369328,343.295269 211.550119,343.295269" id="Fill-68" fill="#43362E"></path>
                <polygon id="Fill-69" fill="#43362E" points="169.787967 343.29571 211.845593 343.29571 211.845593 341.385203 169.787967 341.385203"></polygon>
                <polygon id="Fill-70" fill="#AB612B" points="89.9219971 218.631822 326.359822 218.631822 326.359822 200.982797 89.9219971 200.982797"></polygon>
                <polygon id="Fill-71" fill="#843F1B" points="15.8869972 218.631822 89.9099499 218.631822 89.9099499 200.982797 15.8869972 200.982797"></polygon>
                <polygon id="Fill-72" fill="#853E1B" points="89.9219971 206.865805 326.359822 206.865805 326.359822 200.982797 89.9219971 200.982797"></polygon>
                <polygon id="Fill-73" fill="#4F250D" points="15.8869972 206.865805 89.9099499 206.865805 89.9099499 200.982797 15.8869972 200.982797"></polygon>
                <polygon id="Fill-74" fill="#E19749" points="79.2734708 201.474028 337.636078 201.474028 337.636078 189.708011 79.2734708 189.708011"></polygon>
                <polygon id="Fill-75" fill="#AB612B" points="4.42101393 201.474028 79.2734708 201.474028 79.2734708 189.708011 4.42101393 189.708011"></polygon>
                <polygon id="Fill-76" fill="#CCCCCC" points="279.419298 336.150797 285.300836 336.150797 285.300836 315.735287 279.419298 315.735287"></polygon>
                <polygon id="Fill-77" fill="#CCCCCC" points="235.42322 300.11737 245.990574 300.11737 245.990574 279.701861 235.42322 279.701861"></polygon>
                <path d="M243.569275,283.693923 L237.845108,283.693923 C233.199002,283.693923 229.398578,279.8935 229.398578,275.247394 L229.398578,266.311104 C229.398578,261.664998 233.199002,257.864575 237.845108,257.864575 L243.569275,257.864575 C248.215381,257.864575 252.017275,261.664998 252.017275,266.311104 L252.017275,275.247394 C252.017275,279.8935 248.215381,283.693923 243.569275,283.693923" id="Fill-78" fill="#282828"></path>
                <path d="M252.017422,316.06047 L252.017422,307.124181 C252.017422,302.479545 248.215528,298.677651 243.569422,298.677651 L237.845255,298.677651 C233.199149,298.677651 229.398725,302.479545 229.398725,307.124181 L229.398725,316.06047 L252.017422,316.06047 Z" id="Fill-79" fill="#494949"></path>
                <path d="M286.564359,227.927416 L223.40291,227.927416 C218.549428,227.927416 214.578398,223.957856 214.578398,219.102904 L214.578398,163.970291 C214.578398,159.115338 218.549428,155.145778 223.40291,155.145778 L286.564359,155.145778 C291.419311,155.145778 295.388871,159.115338 295.388871,163.970291 L295.388871,219.102904 C295.388871,223.957856 291.419311,227.927416 286.564359,227.927416" id="Fill-80" fill="#BF3733"></path>
                <path d="M286.597304,227.927416 L227.873114,227.927416 C223.019632,227.927416 219.048602,223.957856 219.048602,219.102904 L219.048602,163.970291 C219.048602,159.115338 223.019632,155.145778 227.873114,155.145778 L286.597304,155.145778 C291.452256,155.145778 295.421816,159.115338 295.421816,163.970291 L295.421816,219.102904 C295.421816,223.957856 291.452256,227.927416 286.597304,227.927416" id="Fill-81" fill="#E64A43"></path>
                <path d="M250.249284,269.721778 L199.374498,269.721778 C194.728392,269.721778 190.927969,265.919884 190.927969,261.275249 C190.927969,256.629143 194.728392,252.827249 199.374498,252.827249 L250.249284,252.827249 C254.895389,252.827249 258.695813,256.629143 258.695813,261.275249 C258.695813,265.919884 254.895389,269.721778 250.249284,269.721778" id="Fill-82" fill="#282828"></path>
                <path d="M283.961716,269.721778 L226.833292,269.721778 C222.187187,269.721778 218.386763,265.919884 218.386763,261.275249 C218.386763,256.629143 222.187187,252.827249 226.833292,252.827249 L283.961716,252.827249 C288.607822,252.827249 292.409716,256.629143 292.409716,261.275249 C292.409716,265.919884 288.607822,269.721778 283.961716,269.721778" id="Fill-83" fill="#494949"></path>
                <path d="M257.235356,279.43389 L257.235356,279.43389 C254.685072,279.43389 252.599545,277.346892 252.599545,274.796608 L252.599545,192.880129 C252.599545,190.329845 254.685072,188.242848 257.235356,188.242848 C259.78564,188.242848 261.872637,190.329845 261.872637,192.880129 L261.872637,274.796608 C261.872637,277.346892 259.78564,279.43389 257.235356,279.43389" id="Fill-84" fill="#494949"></path>
                <path d="M253.11475,264.941834 L189.198806,264.941834 C184.5527,264.941834 180.750806,261.13994 180.750806,256.495305 C180.750806,251.849199 184.5527,248.047305 189.198806,248.047305 L253.11475,248.047305 C257.760856,248.047305 261.561279,251.849199 261.561279,256.495305 C261.561279,261.13994 257.760856,264.941834 253.11475,264.941834" id="Fill-85" fill="#BF3733"></path>
                <path d="M293.314817,264.941834 L221.942159,264.941834 C217.294583,264.941834 213.49563,261.13994 213.49563,256.495305 C213.49563,251.849199 217.294583,248.047305 221.942159,248.047305 L293.314817,248.047305 C297.960923,248.047305 301.762817,251.849199 301.762817,256.495305 C301.762817,261.13994 297.960923,264.941834 293.314817,264.941834" id="Fill-86" fill="#E64A43"></path>
                <polygon id="Fill-87" fill="#CCCCCC" points="196.07766 327.021838 201.959198 327.021838 201.959198 315.735287 196.07766 315.735287"></polygon>
                <polygon id="Fill-88" fill="#333333" points="191.230061 343.258942 201.959198 343.258942 201.959198 326.983599 191.230061 326.983599"></polygon>
                <polygon id="Fill-89" fill="#CCCCCC" points="237.748479 336.150797 243.630017 336.150797 243.630017 315.735287 237.748479 315.735287"></polygon>
                <polygon id="Fill-90" fill="#333333" points="279.417827 343.186875 290.416111 343.186875 290.416111 326.521783 279.417827 326.521783"></polygon>
                <polygon id="Fill-91" fill="#333333" points="235.05112 343.186875 246.047933 343.186875 246.047933 326.521783 235.05112 326.521783"></polygon>
                <polygon id="Fill-92" fill="#CCCCCC" points="196.257092 321.175599 285.300836 321.175599 285.300836 315.736758 196.257092 315.736758"></polygon>
                <path d="M256.849136,131.474023 L256.849136,131.474023 C243.705025,131.474023 232.952357,120.719884 232.952357,107.577243 L232.952357,99.6734217 C232.952357,86.5293103 243.705025,75.7766418 256.849136,75.7766418 C269.993248,75.7766418 280.745916,86.5293103 280.745916,99.6734217 L280.745916,107.577243 C280.745916,120.719884 269.993248,131.474023 256.849136,131.474023" id="Fill-93" fill="#AC8457"></path>
                <path d="M263.096891,129.451739 L255.657827,129.451739 C245.950864,129.451739 238.008802,121.509678 238.008802,111.802714 L238.008802,91.1268813 C238.008802,81.4199175 245.950864,73.4778563 255.657827,73.4778563 L263.096891,73.4778563 C272.803855,73.4778563 280.745916,81.4199175 280.745916,91.1268813 L280.745916,111.802714 C280.745916,121.509678 272.803855,129.451739 263.096891,129.451739" id="Fill-94" fill="#333030"></path>
                <path d="M260.033315,107.70064 L249.17034,107.70064 C240.270819,107.70064 232.992067,100.420417 232.992067,91.5223666 L232.992067,89.6559822 C232.992067,80.757932 240.270819,73.4777092 249.17034,73.4777092 L260.033315,73.4777092 C268.931365,73.4777092 276.211588,80.757932 276.211588,89.6559822 L276.211588,91.5223666 C276.211588,100.420417 268.931365,107.70064 260.033315,107.70064" id="Fill-95" fill="#333030"></path>
                <path d="M239.771646,121.695728 L239.771646,121.695728 C238.475913,121.695728 237.416972,120.636787 237.416972,119.341054 L237.416972,102.156787 C237.416972,100.861054 238.475913,99.8021125 239.771646,99.8021125 C241.065908,99.8021125 242.12632,100.861054 242.12632,102.156787 L242.12632,119.341054 C242.12632,120.636787 241.065908,121.695728 239.771646,121.695728" id="Fill-96" fill="#AC8457"></path>
                <path d="M242.00513,92.8825181 C242.00513,92.8825181 242.027191,110.305047 242.033074,110.752156 C242.068372,113.333326 241.583024,122.104891 233.385052,122.794674 C233.385052,122.794674 235.991225,131.091187 252.026835,133.520869 C252.026835,133.520869 260.848406,135.140167 271.471648,133.319376 C271.471648,133.319376 283.097943,132.508992 289.713386,123.402095 C289.713386,123.402095 281.553653,122.634362 280.743269,111.593426 C280.719737,111.28751 280.703559,92.7148524 280.693264,92.3927577 L242.00513,92.8825181 Z" id="Fill-97" fill="#333030"></path>
                <path d="M66.0664111,30.6685281 C66.0664111,47.5777649 52.3590017,61.2851744 35.4497649,61.2851744 C18.5405281,61.2851744 4.83164791,47.5777649 4.83164791,30.6685281 C4.83164791,13.7592914 18.5405281,0.0518818942 35.4497649,0.0518818942 C52.3590017,0.0518818942 66.0664111,13.7592914 66.0664111,30.6685281" id="Fill-99" fill="#BF3733"></path>
                <path d="M69.4675253,30.6685281 C69.4675253,47.5777649 55.7601159,61.2851744 38.8523499,61.2851744 C21.9431131,61.2851744 8.23423287,47.5777649 8.23423287,30.6685281 C8.23423287,13.7592914 21.9431131,0.0518818942 38.8523499,0.0518818942 C55.7601159,0.0518818942 69.4675253,13.7592914 69.4675253,30.6685281" id="Fill-100" fill="#E64A43"></path>
                <path d="M63.6448178,30.6685281 C63.6448178,44.3627008 52.5435811,55.4609961 38.8523499,55.4609961 C25.1581772,55.4609961 14.0569404,44.3627008 14.0569404,30.6685281 C14.0569404,16.9758262 25.1581772,5.87606017 38.8523499,5.87606017 C52.5435811,5.87606017 63.6448178,16.9758262 63.6448178,30.6685281" id="Fill-101" fill="#D3D7DA"></path>
                <path d="M60.7464067,30.6685281 C60.7464067,44.3627008 50.2952423,55.4609961 37.4026295,55.4609961 C24.508546,55.4609961 14.0573816,44.3627008 14.0573816,30.6685281 C14.0573816,16.9758262 24.508546,5.87606017 37.4026295,5.87606017 C50.2952423,5.87606017 60.7464067,16.9758262 60.7464067,30.6685281" id="Fill-102" fill="#FFFFFF"></path>
                <path d="M38.9795699,45.0743978 L38.9795699,45.0743978 C38.6398262,45.0743978 38.3603833,45.3523699 38.3603833,45.6935844 L38.3603833,50.6559019 C38.3603833,50.9956457 38.6398262,51.2750886 38.9795699,51.2750886 C39.3193136,51.2750886 39.5987565,50.9956457 39.5987565,50.6559019 L39.5987565,45.6935844 C39.5987565,45.3523699 39.3193136,45.0743978 38.9795699,45.0743978" id="Fill-103" fill="#494949"></path>
                <path d="M38.9795699,9.6644234 L38.9795699,9.6644234 C38.6398262,9.6644234 38.3603833,9.94239554 38.3603833,10.28361 L38.3603833,15.2459276 C38.3603833,15.5856713 38.6398262,15.8651142 38.9795699,15.8651142 C39.3193136,15.8651142 39.5987565,15.5856713 39.5987565,15.2459276 L39.5987565,10.28361 C39.5987565,9.94239554 39.3193136,9.6644234 38.9795699,9.6644234" id="Fill-104" fill="#494949"></path>
                <path d="M53.5851677,30.4689471 L53.5851677,30.4689471 C53.5851677,30.8086908 53.8631398,31.0881337 54.2028836,31.0881337 L59.1666719,31.0881337 C59.5064156,31.0881337 59.7843877,30.8086908 59.7843877,30.4689471 C59.7843877,30.1306741 59.5064156,29.8512312 59.1666719,29.8512312 L54.2028836,29.8512312 C53.8631398,29.8512312 53.5851677,30.1306741 53.5851677,30.4689471" id="Fill-105" fill="#494949"></path>
                <path d="M38.6133526,30.7332412 L38.6133526,30.7332412 C38.9501549,31.0700435 39.5002162,31.0700435 39.8355476,30.7332412 L45.8141549,24.7561047 C46.1509571,24.4193025 46.1509571,23.8692412 45.8141549,23.532439 C45.4788234,23.1971075 44.9287621,23.1971075 44.5919599,23.532439 L38.6133526,29.5110462 C38.2765504,29.8463777 38.2765504,30.396439 38.6133526,30.7332412" id="Fill-106" fill="#494949"></path>
                <path d="M21.5876323,23.0663577 L21.5876323,23.0663577 C21.4817382,23.336976 21.6126351,23.6414217 21.8817827,23.7487866 L38.9969248,30.551015 C39.2675432,30.6583799 39.5734596,30.5260123 39.6793538,30.2568646 C39.7867187,29.987717 39.654351,29.6818006 39.3866741,29.5744357 L22.2700613,22.7722072 C21.9994429,22.6663131 21.6949972,22.7957393 21.5876323,23.0663577" id="Fill-107" fill="#494949"></path>
                <path d="M18.1750462,30.4689471 L18.1750462,30.4689471 C18.1750462,30.8086908 18.4515476,31.0881337 18.7927621,31.0881337 L23.7550797,31.0881337 C24.0948234,31.0881337 24.3742663,30.8086908 24.3742663,30.4689471 C24.3742663,30.1306741 24.0948234,29.8512312 23.7550797,29.8512312 L18.7927621,29.8512312 C18.4515476,29.8512312 18.1750462,30.1306741 18.1750462,30.4689471" id="Fill-108" fill="#494949"></path>
            </g>
        </g>
    </g>
</svg>