<?xml version="1.0" encoding="utf-8"?>
<!-- Generator: Adobe Illustrator 24.1.1, SVG Export Plug-In . SVG Version: 6.00 Build 0)  -->
<svg version="1.1" id="Capa_1" xmlns="http://www.w3.org/2000/svg" xmlns:xlink="http://www.w3.org/1999/xlink" x="0px" y="0px"
	 viewBox="0 0 46.5 46.5" style="enable-background:new 0 0 46.5 46.5;" xml:space="preserve">
<style type="text/css">
	.st0{fill:#4F4F4F;}
</style>
<g>
	<path class="st0" d="M29.1,9.1c0-4.8,3.9-8.7,8.7-8.7c4.8,0,8.7,3.9,8.7,8.7c0,1.4-1.1,2.5-2.5,2.5s-2.5-1.1-2.5-2.5
		c0-2-1.7-3.7-3.7-3.7c-2,0-3.7,1.7-3.7,3.7c0,1.4-1.1,2.5-2.5,2.5S29.1,10.5,29.1,9.1z M1.3,9.1c0-4.8,3.9-8.7,8.7-8.7
		c4.8,0,8.7,3.9,8.7,8.7c0,1.4-1.1,2.5-2.5,2.5s-2.5-1.1-2.5-2.5c0-2-1.7-3.7-3.7-3.7C8,5.4,6.3,7,6.3,9.1c0,1.4-1.1,2.5-2.5,2.5
		S1.3,10.4,1.3,9.1z M0.2,31.4c-0.6-1.5,0.1-3.3,1.6-3.9c0.4-0.2,0.8-0.2,1.1-0.2c1.2,0,2.3,0.7,2.8,1.9c2.8,6.7,9.7,11,17.5,11
		c7.7,0,14.5-4.3,17.4-11c0.7-1.5,2.4-2.2,3.9-1.6c1.5,0.7,2.2,2.4,1.6,3.9c-3.8,8.9-12.8,14.6-22.9,14.6C13,46.1,3.9,40.3,0.2,31.4
		z"/>
</g>
</svg>
